<svg width="32" height="32" viewBox="0 0 32 32" fill="none" xmlns="http://www.w3.org/2000/svg">
<rect width="32" height="32" fill="white"/>
<path d="M6.83523 13.4545V14.3068H3.30682V13.4545H6.83523ZM4.36364 20V12.5511C4.36364 12.1761 4.4517 11.8636 4.62784 11.6136C4.80398 11.3636 5.03267 11.1761 5.31392 11.0511C5.59517 10.9261 5.89205 10.8636 6.20455 10.8636C6.4517 10.8636 6.65341 10.8835 6.80966 10.9233C6.96591 10.9631 7.08239 11 7.15909 11.0341L6.86932 11.9034C6.81818 11.8864 6.74716 11.8651 6.65625 11.8395C6.56818 11.8139 6.4517 11.8011 6.30682 11.8011C5.97443 11.8011 5.73438 11.8849 5.58665 12.0526C5.44176 12.2202 5.36932 12.4659 5.36932 12.7898V20H4.36364ZM12.3697 17.3239V13.4545H13.3754V20H12.3697V18.892H12.3015C12.1481 19.2244 11.9094 19.5071 11.5856 19.7401C11.2617 19.9702 10.8526 20.0852 10.3583 20.0852C9.94922 20.0852 9.58558 19.9957 9.2674 19.8168C8.94922 19.6349 8.69922 19.3622 8.5174 18.9986C8.33558 18.6321 8.24467 18.1705 8.24467 17.6136V13.4545H9.25036V17.5455C9.25036 18.0227 9.38388 18.4034 9.65092 18.6875C9.92081 18.9716 10.2646 19.1136 10.6822 19.1136C10.9322 19.1136 11.1864 19.0497 11.445 18.9219C11.7063 18.794 11.9251 18.598 12.1012 18.3338C12.2802 18.0696 12.3697 17.733 12.3697 17.3239ZM16.223 16.0625V20H15.2173V13.4545H16.1889V14.4773H16.2741C16.4276 14.1449 16.6605 13.8778 16.973 13.6761C17.2855 13.4716 17.6889 13.3693 18.1832 13.3693C18.6264 13.3693 19.0142 13.4602 19.3466 13.642C19.679 13.821 19.9375 14.0938 20.1222 14.4602C20.3068 14.8239 20.3991 15.2841 20.3991 15.8409V20H19.3935V15.9091C19.3935 15.3949 19.2599 14.9943 18.9929 14.7074C18.7259 14.4176 18.3594 14.2727 17.8935 14.2727C17.5724 14.2727 17.2855 14.3423 17.0327 14.4815C16.7827 14.6207 16.5852 14.8239 16.4403 15.0909C16.2955 15.358 16.223 15.6818 16.223 16.0625ZM21.9284 20V19.04H26.5964V16.028H22.2764V15.068H26.5964V12.38H22.0244V11.42H27.5924V20H21.9284Z" fill="black"/>
</svg>
